<?xml version="1.0" encoding="utf-8"?>
<!-- Generator: Adobe Illustrator 19.2.1, SVG Export Plug-In . SVG Version: 6.00 Build 0)  -->
<svg version="1.1" id="layer" xmlns="http://www.w3.org/2000/svg" xmlns:xlink="http://www.w3.org/1999/xlink" x="0px" y="0px"
	 viewBox="26 258 600 138" style="enable-background:new 0 0 600 138;" xml:space="preserve">
<style type="text/css">
	.st0{fill:#00A05D;}
	.st1{fill:#FFFFFF;}
	.st2{fill:#007F43;}
</style>
<rect x="187.7" y="332.5" class="st0" width="438.3" height="8.3"/>
<path d="M187.8,357.8H221v6.3h-23.6v6.8h22.4v6h-22.4v7.5h23.8v6.3h-33.4V357.8z M227.5,390.6h31.3V384h-21.7v-26.3h-9.7V390.6z
	 M264.5,390.6h33.4v-6.3h-23.8v-7.5h22.4v-6h-22.4V364h23.6v-6.3h-33.2V390.6z M344.7,370.2c-1.4-11.3-12.4-13.3-20.9-13.3
	c-12.9,0-21,5.1-21,17.3c0,12.2,8.1,17.3,21,17.3c11.3,0,19.8-4,21-13.5h-10.5c-0.9,5.2-5.5,7.3-10.2,7.3c-9.2,0-11.1-6.6-11.1-11.1
	c0-4.5,1.9-11.1,11.1-11.1c5,0,9.3,2.3,10.2,7.1H344.7z M360.2,390.6h9.7V364h13.2v-6.2H347v6.2h13.2V390.6z M387.4,390.6h9.7v-12
	h12c3,0,5.1,1.2,5.1,5.7c0,3.4,0,4.8,0.9,6.3h10.6c-1.7-1.7-1.8-5.5-1.8-7.1c0-3.2-0.6-8.2-4.9-8.8v-0.1c4-1.3,5.8-3.9,5.8-7.9
	c0-3.4-1.6-8.9-11.5-8.9h-25.9V390.6z M397.1,364h12.3c2.3,0,5.1,0.8,5.1,4.1c0,3.1-2.5,4.2-4.6,4.2h-12.8V364z M451,356.8
	c-19.1,0-22.1,10.5-22.1,17.3c0,6.8,3,17.3,22.1,17.3c19.1,0,22.1-10.5,22.1-17.3C473.1,367.3,470.1,356.8,451,356.8 M451,385.2
	c-8.8,0-11.8-6-11.8-11.1c0-5.1,3.1-11.1,11.8-11.1c8.8,0,11.9,6,11.9,11.1C462.9,379.3,459.8,385.2,451,385.2 M508.9,380.6
	L508.9,380.6l-18.8-22.9h-11.2v32.8h9.4v-22.9h0.1l19.4,22.9h10.5v-32.8h-9.4V380.6z M526.1,390.6h9.7v-32.8h-9.7V390.6z M584,370.2
	c-1.4-11.3-12.4-13.3-20.9-13.3c-13,0-21,5.1-21,17.3c0,12.2,8.1,17.3,21,17.3c11.3,0,19.8-4,21-13.5h-10.5c-1,5.2-5.5,7.3-10.2,7.3
	c-9.2,0-11.1-6.6-11.1-11.1c0-4.5,1.9-11.1,11.1-11.1c5,0,9.3,2.3,10.2,7.1H584z M624.5,367.3c-0.6-9.3-11.5-10.4-18.8-10.4
	c-11.1,0-17.6,3-17.6,10.3c0,6.7,6,8.4,12.1,9.3l8.8,1.2c3.8,0.5,6,1.2,6,3.8c0,2.8-3.1,4.1-7.6,4.1c-4.2,0-9.1-0.8-9.2-5.3h-10.9
	c0.1,10.3,11.4,11.3,20,11.3c14,0,18.5-4.9,18.5-11c0-6-4.9-8.2-11.4-9.2l-12.1-1.8c-2.5-0.4-4.1-1.3-4.1-3.1c0-2.2,2.6-3.9,6.6-3.9
	c3.9,0,8.3,0.5,8.9,4.7H624.5z M204.8,292H240v-9h-35.2v-11.5H245v-9h-57.3v50.8h17V292z M320.3,262.6h-17.1v33.4
	c0,6.2-4.7,9.7-16.2,9.7c-7.8,0-14.3-3.1-14.3-10.2v-33h-17.1v33.7c0.2,5.1,1.9,9.2,6.2,12.3c7.1,5,18.1,6.2,25.4,6.2
	c20.2,0,32.9-5.7,32.9-19.1V262.6z M370.7,271.6h24.2v-9h-65.1v9h24.2v41.8h16.7V271.6z M468.9,262.6h-17.1v33.4
	c0,6.2-4.7,9.7-16.2,9.7c-7.8,0-14.3-3.1-14.3-10.2v-33h-17.1v33.7c0.2,5.1,1.9,9.2,6.2,12.3c7.1,5,18.1,6.2,25.4,6.2
	c20.2,0,32.9-5.7,32.9-19.1V262.6z M485.3,313.4h16.4v-19.9H519c12.4,0,13,2.7,13,9.6c0,5.2,0.7,7.9,1.8,10.2h18.5v-1.3
	c-3.6-0.9-3.6-2.7-3.6-10.1c0-9.5-3.6-11-10.1-12.9c7.9-1.7,12.4-6.5,12.4-12.1c0-4.4-3.9-14.4-25.2-14.4h-40.5V313.4z M501.7,285
	v-13.6h20.9c9.8,0,11.7,4,11.7,6.6c0,5-4.2,6.9-12.9,6.9H501.7z M624.7,262.6h-58.9v50.8H626v-9h-43.8v-13.1h39.1v-9h-39.1v-10.7
	h42.5V262.6z"/>
<rect x="27.4" y="258.5" class="st1" width="136" height="136.1"/>
<path class="st2" d="M161.9,257.3H28.8H26v2.7v133.1v2.7h2.7h133.1h2.7v-2.7V260v-2.7H161.9z M161.9,393.1H28.8V260h133.1V393.1z"/>
<path class="st0" d="M159.3,389.3V266.8v-4.2h-49.8H31.3v87.2v13.8v27h128V389.3z M158.2,389.5h-10.7l10.7-10.8V389.5z M158.2,376.7
	l-12.6,12.7H134l24.2-24.4V376.7z M158.2,363.1l-26.1,26.3h-11.6l37.7-38V363.1z M158.2,349.5l-39.6,40H107l51.2-51.6V349.5z
	 M158.2,335.9l-53.1,53.6H93.5l64.7-65.2V335.9z M158.2,281.5l-39.9,40.3l0.8,0.8l0.2,0.2l39-39.3v11.7l-34.8,35v0.2v1.5v0.2
	l34.8-35v11.7l-34.8,35v0.4v1.5l34.8-35v11.7l-66.6,67.2H80l32.5-32.8H111h-0.4l-32.5,32.8h-2.2H70V386v-0.1v-1.5V384v-11.7V372
	v-1.6v-11.7v-1.9v0v-5.9h5.8h1.9h11.6h1.6h0.3h11.6h0.2h1.5h0.1h0h11.6h0.4h0.6v-0.6v-0.4v0v-11.7V338v-1.5v-0.2v-11.7v0v-0.4v-1.6
	v0v-1.8h-9.8l50.6-51.1V281.5z M123.8,263.7h11.6l-12,12.1v1.9l13.9-14h11.6l-25.5,25.7v1.9l27.4-27.7h7.4v4.2l-52.6,53H94.1
	l21.7-21.9h-1.9l-21.7,21.9H80.6l21.7-21.9h-1.9l-21.7,21.9H70v-2.9V316v-11.7v0v-1.9v-9.2h9.1h0H81h11.6h0h1.9h11.6h0h1.9h9.4v-9.5
	v-1.9v0v-11.7v-1.9v-3.7v-0.8h6H123.8z"/>
<path class="st0" d="M88.8,299l-13,13.1v-1.9L86.9,299H88.8z M85.2,356.7h-1.6l-7.7,7.8v1.6v0.3l9.7-9.7H85.2z M98.9,356.7h-1.5
	h-0.2l-21.2,21.4v0.3v1.5v0.1L99,356.7H98.9z"/>
<polygon class="st2" points="117.4,324.2 117.4,325.8 117.4,336.5 117.4,338 117.4,348.7 117.4,350.3 117.4,350.9 116.7,350.9 
	115.2,350.9 104.6,350.9 103.1,350.9 92.4,350.9 90.9,350.9 80.3,350.9 78.8,350.9 70,350.9 70,359.8 70,361.3 70,372 70,373.6 
	70,384.3 70,385.9 70,389.5 75.9,389.5 75.9,379.9 75.9,378.4 75.9,367.7 75.9,366.1 75.9,356.7 85.2,356.7 86.7,356.7 97.3,356.7 
	98.9,356.7 109.5,356.7 111,356.7 121.6,356.7 123.2,356.7 123.5,356.7 123.5,356.4 123.5,354.9 123.5,344.2 123.5,342.6 
	123.5,331.9 123.5,330.3 123.5,326.9 119.8,323.3 119.1,322.5 117.4,320.8 "/>
<polygon class="st2" points="123.4,295.2 123.4,293.7 123.4,283 123.4,281.4 123.4,270.7 123.4,269.1 123.4,263.7 117.4,263.7 
	117.4,264.5 117.4,275.2 117.4,276.8 117.4,287.5 117.4,289 117.4,293.2 113.2,293.2 111.7,293.2 101.1,293.2 99.5,293.2 
	88.9,293.2 87.4,293.2 70,293.2 70,310.8 70,312.3 70,320.9 72.1,320.9 73.7,320.9 75.8,320.9 75.8,318.7 75.8,317.2 75.8,306.5 
	75.8,304.9 75.8,299 81.7,299 83.2,299 93.8,299 95.4,299 106,299 107.5,299 118.1,299 119.7,299 123.4,299 "/>
</svg>
